<?xml version="1.0" encoding="UTF-8" standalone="no"?>
<svg
   xmlns:dc="http://purl.org/dc/elements/1.1/"
   xmlns:cc="http://creativecommons.org/ns#"
   xmlns:rdf="http://www.w3.org/1999/02/22-rdf-syntax-ns#"
   xmlns:svg="http://www.w3.org/2000/svg"
   xmlns="http://www.w3.org/2000/svg"
   xmlns:sodipodi="http://sodipodi.sourceforge.net/DTD/sodipodi-0.dtd"
   xmlns:inkscape="http://www.inkscape.org/namespaces/inkscape"
   version="1.1"
   x="0px"
   y="0px"
   viewBox="0 0 20 20"
   enable-background="new 0 0 20 20"
   xml:space="preserve"
   id="svg18"
   sodipodi:docname="noun_793767_cc.svg"
   width="20"
   height="20"
   inkscape:version="0.92.2 5c3e80d, 2017-08-06"><metadata
     id="metadata24"><rdf:RDF><cc:Work
         rdf:about=""><dc:format>image/svg+xml</dc:format><dc:type
           rdf:resource="http://purl.org/dc/dcmitype/StillImage" /></cc:Work></rdf:RDF></metadata><defs
     id="defs22" /><sodipodi:namedview
     pagecolor="#ffffff"
     bordercolor="#666666"
     borderopacity="1"
     objecttolerance="10"
     gridtolerance="10"
     guidetolerance="10"
     inkscape:pageopacity="0"
     inkscape:pageshadow="2"
     inkscape:window-width="640"
     inkscape:window-height="480"
     id="namedview20"
     showgrid="false"
     inkscape:zoom="9.44"
     inkscape:cx="10"
     inkscape:cy="7.5"
     inkscape:window-x="0"
     inkscape:window-y="25"
     inkscape:window-maximized="0"
     inkscape:current-layer="svg18" /><g
     id="g12"><path
       d="M 14,0 H 13 V 14.4 C 12.4,14.1 11.7,14 11,14 c -2.2,0 -4,1.3 -4,3 0,1.7 1.8,3 4,3 2.2,0 4,-1.3 4,-3 V 2.1 c 1.7,0.4 3,2 3,3.9 h 2 C 20,2.7 17.3,0 14,0 Z m -3,18 c -1.2,0 -2,-0.6 -2,-1 0,-0.4 0.8,-1 2,-1 1.2,0 2,0.6 2,1 0,0.4 -0.8,1 -2,1 z"
       id="path2"
       inkscape:connector-curvature="0"
       style="fill:#000000" /><rect
       x="0"
       y="9"
       width="11"
       height="2"
       id="rect4"
       style="fill:#000000" /><rect
       x="0"
       y="13"
       width="6"
       height="2"
       id="rect6"
       style="fill:#000000" /><rect
       x="0"
       y="5"
       width="11"
       height="2"
       id="rect8"
       style="fill:#000000" /><rect
       x="0"
       y="1"
       width="11"
       height="2"
       id="rect10"
       style="fill:#000000" /></g><text
     x="0"
     y="35"
     font-size="5px"
     font-weight="bold"
     id="text14"
     style="font-weight:bold;font-size:5px;font-family:'Helvetica Neue', Helvetica, Arial-Unicode, Arial, Sans-serif;fill:#000000">Created by ProSymbols</text>
<text
     x="0"
     y="40"
     font-size="5px"
     font-weight="bold"
     id="text16"
     style="font-weight:bold;font-size:5px;font-family:'Helvetica Neue', Helvetica, Arial-Unicode, Arial, Sans-serif;fill:#000000">from the Noun Project</text>
</svg>