<?xml version="1.0" encoding="UTF-8" standalone="no"?>
<svg
   xmlns:dc="http://purl.org/dc/elements/1.1/"
   xmlns:cc="http://creativecommons.org/ns#"
   xmlns:rdf="http://www.w3.org/1999/02/22-rdf-syntax-ns#"
   xmlns:svg="http://www.w3.org/2000/svg"
   xmlns="http://www.w3.org/2000/svg"
   xmlns:sodipodi="http://sodipodi.sourceforge.net/DTD/sodipodi-0.dtd"
   xmlns:inkscape="http://www.inkscape.org/namespaces/inkscape"
   version="1.1"
   x="0px"
   y="0px"
   viewBox="0 0 72.150002 66"
   xml:space="preserve"
   id="svg12"
   sodipodi:docname="noun_1320012_cc.svg"
   inkscape:version="0.92.2 5c3e80d, 2017-08-06"
   width="72.150002"
   height="66"><metadata
     id="metadata18"><rdf:RDF><cc:Work
         rdf:about=""><dc:format>image/svg+xml</dc:format><dc:type
           rdf:resource="http://purl.org/dc/dcmitype/StillImage" /></cc:Work></rdf:RDF></metadata><defs
     id="defs16" /><sodipodi:namedview
     pagecolor="#ffffff"
     bordercolor="#666666"
     borderopacity="1"
     objecttolerance="10"
     gridtolerance="10"
     guidetolerance="10"
     inkscape:pageopacity="0"
     inkscape:pageshadow="2"
     inkscape:window-width="1680"
     inkscape:window-height="990"
     id="namedview14"
     showgrid="false"
     inkscape:zoom="5.3400704"
     inkscape:cx="4.5515695"
     inkscape:cy="-7.4799828"
     inkscape:window-x="0"
     inkscape:window-y="28"
     inkscape:window-maximized="1"
     inkscape:current-layer="svg12" /><g
     id="g6"
     transform="translate(-13.975,-17)"><path
       d="m 45.5,59 c -2.4,0 -4.5,1.5 -4.5,3.3 0,1.8 2.1,3.2 4.5,3.2 C 47.9,65.5 50,64 50,62.2 50,60.5 47.9,59 45.5,59 Z"
       id="path2"
       inkscape:connector-curvature="0" /><path
       d="M 72.8,23.5 C 70.5,19.5 66.2,17 61.5,17 h -23 c -4.7,0 -9,2.5 -11.3,6.5 l -11.5,20 c -2.3,4 -2.3,9 0,13 l 11.5,20 c 2.3,4 6.6,6.5 11.3,6.5 h 23.1 c 4.7,0 9,-2.5 11.3,-6.5 l 11.5,-20 c 2.3,-4 2.3,-9 0,-13 z M 60,48.8 58.7,47.3 57.4,45.8 c 0,0 2.9,-2.7 2.4,-5.2 -0.4,-1.7 -2.4,-3.4 -5.7,-4.7 V 62 62 c 0,0.1 0,0.2 0,0.2 0,4 -3.8,7.2 -8.5,7.2 -4.7,0 -8.6,-3.2 -8.6,-7.2 0,-4 3.8,-7.3 8.5,-7.3 1.7,0 3.2,0.4 4.5,1.1 V 30.3 l 2.6,0.8 c 6.5,2 10.3,4.9 11.1,8.6 1,4.9 -3.5,8.9 -3.7,9.1 z"
       id="path4"
       inkscape:connector-curvature="0" /></g></svg>